<?xml version="1.0" standalone="no"?>
<!DOCTYPE svg PUBLIC "-//W3C//DTD SVG 20010904//EN"
 "http://www.w3.org/TR/2001/REC-SVG-20010904/DTD/svg10.dtd">
<svg version="1.0" xmlns="http://www.w3.org/2000/svg"
 width="2500.000000pt" height="2500.000000pt" viewBox="0 0 2500.000000 2500.000000"
 preserveAspectRatio="xMidYMid meet">
<metadata>
Created by potrace 1.11, written by Peter Selinger 2001-2013
</metadata>
<g transform="translate(0.000000,2500.000000) scale(0.100000,-0.100000)"
fill="#000000" stroke="none">
<path d="M12450 24913 c-28 -48 -118 -198 -200 -333 -196 -325 -462 -765 -475
-787 -51 -88 -70 -120 -80 -133 -7 -8 -24 -35 -37 -60 -14 -25 -123 -207 -243
-405 -566 -937 -831 -1377 -844 -1402 -8 -16 -17 -30 -20 -33 -7 -6 -22 -31
-51 -85 -12 -21 -30 -50 -41 -63 -10 -14 -19 -29 -19 -34 0 -5 -11 -24 -25
-42 -14 -18 -25 -35 -25 -38 0 -2 -38 -67 -84 -144 -152 -250 -300 -497 -331
-548 -37 -63 -134 -224 -226 -375 -38 -63 -69 -118 -69 -123 0 -4 -4 -8 -9 -8
-5 0 -11 -8 -14 -17 -6 -19 -25 -51 -95 -163 -34 -55 -104 -171 -197 -327 -32
-53 -500 -830 -771 -1278 -136 -225 -337 -558 -446 -740 -110 -181 -205 -339
-211 -350 -7 -11 -27 -43 -44 -72 -18 -30 -33 -56 -33 -59 0 -3 -8 -18 -19
-32 -10 -15 -145 -236 -299 -492 -351 -584 -926 -1537 -1020 -1693 -40 -65
-72 -121 -72 -124 0 -3 -11 -21 -25 -39 -14 -18 -25 -35 -25 -38 0 -2 -60
-103 -133 -223 -73 -120 -162 -267 -197 -326 -82 -137 -64 -107 -335 -556
-126 -209 -239 -396 -250 -415 -11 -19 -121 -203 -245 -407 -124 -205 -234
-388 -246 -408 -12 -20 -53 -89 -92 -153 -71 -118 -71 -118 -49 -132 22 -14
817 -484 872 -516 17 -9 264 -156 550 -325 286 -169 535 -316 552 -326 18 -10
155 -91 305 -180 150 -89 287 -170 303 -179 17 -10 264 -156 550 -325 713
-421 825 -488 1015 -601 91 -53 174 -102 185 -108 22 -12 230 -136 475 -282
85 -50 169 -100 187 -110 34 -20 113 -67 438 -259 218 -129 325 -192 1245
-735 338 -199 631 -373 650 -385 19 -13 78 -48 131 -78 53 -30 115 -67 137
-81 23 -14 47 -26 53 -26 7 0 75 37 151 83 76 45 153 90 171 101 34 19 1944
1149 2025 1197 15 9 54 32 87 51 56 33 1607 950 1780 1053 44 26 94 56 112 66
42 24 1820 1074 1953 1154 124 74 910 538 1192 704 109 64 198 119 198 123 0
4 -44 80 -99 170 -54 90 -108 179 -119 198 -11 19 -110 184 -219 365 -110 182
-405 670 -655 1085 -250 415 -533 885 -629 1043 -96 158 -182 301 -191 317
-10 17 -26 43 -35 60 -10 16 -47 77 -83 136 -36 59 -74 123 -86 143 -12 20
-112 187 -224 371 -111 184 -210 349 -220 365 -13 23 -327 542 -501 830 -10
17 -24 41 -32 55 -7 14 -84 141 -170 283 -86 142 -157 263 -157 268 0 5 -3 9
-7 9 -5 0 -13 10 -19 23 -6 12 -55 95 -110 185 -54 89 -108 178 -119 197 -11
20 -45 77 -76 128 -247 410 -909 1507 -984 1632 -11 18 -129 215 -263 437
-134 221 -341 565 -460 763 -180 298 -469 778 -953 1580 -721 1198 -925 1536
-941 1565 -11 19 -26 42 -32 50 -7 8 -16 22 -19 30 -4 8 -17 31 -29 51 -13 20
-37 61 -55 90 -17 30 -65 109 -106 177 l-75 123 -52 -88z"/>
<path d="M4846 10798 c4 -7 57 -83 118 -168 60 -85 145 -204 187 -265 43 -60
82 -115 87 -120 4 -6 33 -45 63 -88 30 -44 61 -88 69 -100 41 -60 303 -428
335 -472 31 -43 362 -509 405 -572 8 -11 62 -87 120 -168 58 -81 117 -164 131
-184 32 -45 49 -70 298 -421 111 -157 209 -294 217 -305 23 -32 112 -158 126
-178 7 -11 30 -42 50 -70 20 -29 47 -65 58 -82 11 -16 47 -66 78 -110 32 -44
100 -141 152 -215 52 -74 100 -142 107 -150 7 -8 69 -96 139 -195 70 -99 146
-207 170 -240 24 -33 63 -89 88 -125 25 -36 90 -128 145 -205 55 -77 105 -147
111 -155 137 -193 786 -1107 1145 -1615 82 -115 160 -226 174 -245 14 -19 121
-170 238 -335 117 -165 216 -304 220 -310 8 -9 494 -693 564 -793 14 -21 115
-163 224 -317 109 -154 208 -293 219 -310 12 -16 30 -42 41 -56 11 -14 26 -35
33 -45 7 -10 47 -68 90 -129 43 -60 179 -252 302 -425 123 -173 379 -533 568
-800 189 -267 350 -494 358 -505 8 -11 58 -81 110 -155 52 -74 101 -141 109
-149 11 -11 20 -3 56 50 24 35 120 172 214 304 93 132 177 250 185 262 8 12
69 97 135 190 66 92 173 242 237 333 64 91 123 173 130 182 16 22 26 36 190
268 72 102 192 271 266 375 74 105 200 282 280 395 80 113 157 221 172 240 14
19 57 80 95 135 38 55 73 105 78 110 7 9 95 132 117 165 14 21 280 394 327
460 22 30 206 289 408 575 202 286 385 543 405 570 20 28 51 70 68 95 17 25
125 178 241 340 115 162 225 318 245 345 309 436 428 603 438 618 7 10 46 64
86 120 106 150 136 191 296 417 79 113 153 216 163 230 10 14 147 207 305 430
158 223 291 410 295 415 5 6 85 118 178 250 93 132 227 321 297 420 71 99 134
188 141 199 6 10 26 37 43 60 27 35 177 247 448 631 39 55 75 105 81 112 5 6
25 33 43 60 18 26 121 171 228 322 107 151 202 287 211 302 10 16 21 29 25 29
5 0 13 10 18 23 6 12 28 47 50 77 23 30 52 71 65 90 14 19 33 46 42 60 10 14
63 88 118 165 55 77 107 150 115 162 8 11 40 56 71 100 77 109 78 110 38 86
-46 -28 -1123 -664 -1224 -723 -44 -26 -129 -76 -190 -112 -246 -146 -951
-562 -970 -573 -11 -6 -46 -26 -78 -45 -134 -80 -480 -284 -807 -477 -69 -40
-132 -77 -140 -82 -8 -5 -127 -76 -265 -156 -137 -81 -266 -157 -285 -170 -19
-12 -51 -31 -70 -42 -19 -11 -174 -102 -345 -203 -170 -101 -319 -189 -330
-195 -11 -6 -96 -56 -190 -111 -253 -151 -666 -395 -700 -414 -16 -9 -95 -56
-174 -104 -79 -47 -145 -86 -147 -86 -1 0 -103 -60 -225 -133 -242 -144 -609
-361 -662 -391 -17 -10 -79 -46 -137 -80 -58 -35 -184 -109 -280 -166 -96 -57
-228 -134 -292 -172 -64 -39 -123 -68 -130 -66 -7 1 -82 44 -166 93 -84 50
-165 97 -180 106 -15 9 -151 89 -302 179 -269 159 -414 245 -475 280 -16 9
-88 52 -158 94 -71 42 -129 76 -131 76 -1 0 -54 31 -117 70 -63 38 -136 81
-164 96 -27 14 -57 32 -65 39 -8 6 -82 51 -165 99 -82 48 -157 92 -165 97 -8
5 -123 73 -255 150 -132 78 -284 168 -338 200 -54 33 -100 59 -103 59 -3 0
-25 14 -49 30 -24 17 -46 30 -50 30 -3 0 -29 15 -58 33 -29 19 -95 58 -147 89
-52 30 -183 107 -291 171 -108 63 -211 124 -230 135 -19 11 -140 82 -269 159
-448 267 -585 348 -605 358 -11 6 -119 70 -240 142 -121 72 -310 183 -420 248
-110 65 -294 174 -409 242 -115 68 -211 123 -213 123 -3 0 -23 13 -46 28 -23
16 -103 63 -177 106 -74 43 -151 89 -170 101 -19 12 -118 71 -220 130 -102 59
-201 118 -220 130 -33 21 -346 206 -417 246 -17 10 -50 29 -72 43 -22 15 -43
26 -46 26 -3 0 -36 20 -75 45 -39 25 -72 45 -75 45 -2 0 -39 21 -82 48 -113
69 -116 70 -143 84 -14 7 -27 15 -30 18 -3 3 -26 17 -52 30 -27 14 -48 28 -48
32 0 5 -5 8 -11 8 -5 0 -7 -6 -3 -12z"/>
</g>
</svg>
